<?xml version="1.0" encoding="utf-8"?>
<!-- Generator: Adobe Illustrator 16.0.0, SVG Export Plug-In . SVG Version: 6.00 Build 0)  -->
<!DOCTYPE svg PUBLIC "-//W3C//DTD SVG 1.1//EN" "http://www.w3.org/Graphics/SVG/1.1/DTD/svg11.dtd">
<svg version="1.1" id="Layer_1" xmlns="http://www.w3.org/2000/svg" xmlns:xlink="http://www.w3.org/1999/xlink" x="0px" y="0px"
	 width="128px" height="128px" viewBox="0 0 128 128" enable-background="new 0 0 128 128" xml:space="preserve">
<g id="Background">
	<rect fill-opacity="0" width="128" height="128"/>
</g>
<g id="Background_1_">
	<path fill="#737370" d="M18.092,6h91.811C116.552,6,122,11.441,122,18.096v91.806c0,6.656-5.448,12.098-12.098,12.098H18.092
		C11.436,122,6,116.559,6,109.902V18.096C6,11.441,11.436,6,18.092,6"/>
	<g>
		<path fill="#ECECEC" d="M99.005,57.973c-0.125,3.56-0.593,7.086-1.384,10.595c-0.773,3.498-1.928,6.651-3.482,9.42
			c-1.508,2.796-3.445,5.036-5.858,6.757c-2.373,1.725-5.231,2.596-8.544,2.596c-2.209,0-4.197-0.498-6-1.457
			c-1.786-0.966-3.216-2.363-4.256-4.166c-1.402,1.707-3,3.047-4.82,4.04c-1.847,0.979-3.854,1.458-6.012,1.458
			c-2.577,0-4.865-0.498-6.804-1.52c-1.926-1.029-3.514-2.504-4.74-4.412c-1.198-1.91-2.034-4.2-2.486-6.9
			c-0.469-2.689-0.514-5.676-0.159-8.984c0.469-3.854,1.34-7.334,2.549-10.443c1.243-3.107,2.831-5.763,4.758-7.984
			c1.972-2.209,4.244-3.916,6.882-5.097c2.656-1.198,5.593-1.803,8.906-1.803c3.355,0,6.092,0.435,8.266,1.306
			c2.131,0.869,3.854,1.893,5.189,3.011l-2.781,29.948c-0.061,1.103-0.026,1.938,0.107,2.56c0.141,0.595,0.391,1.059,0.7,1.339
			c0.345,0.312,0.718,0.498,1.163,0.589c0.436,0.061,0.842,0.096,1.261,0.096c1.153,0,2.175-0.5,3.108-1.527
			c0.916-1.021,1.723-2.435,2.424-4.254c0.699-1.819,1.225-3.979,1.587-6.499c0.386-2.532,0.571-5.284,0.571-8.269
			c0.141-4.628-0.215-8.64-1.146-12.024c-0.916-3.391-2.396-6.188-4.385-8.374c-1.988-2.193-4.477-3.826-7.442-4.882
			c-3.001-1.073-6.431-1.6-10.318-1.6c-4.413,0-8.391,0.871-11.9,2.594c-3.543,1.724-6.526,4.119-9.013,7.193
			c-2.502,3.063-4.446,6.713-5.875,10.928c-1.414,4.21-2.238,8.838-2.391,13.889c-0.237,5.082,0.153,9.494,1.181,13.286
			c1.022,3.793,2.593,6.932,4.752,9.447c2.13,2.523,4.831,4.412,8.098,5.655c3.249,1.245,7.024,1.883,11.25,1.883
			c1.333,0,2.752-0.079,4.165-0.231c1.429-0.158,2.796-0.357,4.164-0.656c1.351-0.277,2.673-0.619,3.899-0.994
			c1.242-0.373,2.333-0.791,3.338-1.242l2.086,7.678c-1.138,0.713-2.424,1.332-3.871,1.865c-1.457,0.525-2.969,0.959-4.584,1.332
			c-1.57,0.361-3.187,0.621-4.785,0.797c-1.598,0.169-3.108,0.262-4.599,0.262c-6.324,0-11.765-0.919-16.348-2.737
			c-4.6-1.813-8.391-4.411-11.358-7.768c-2.972-3.387-5.148-7.487-6.515-12.309c-1.367-4.832-1.938-10.256-1.706-16.269
			c0.215-5.983,1.333-11.605,3.419-16.872c2.034-5.272,4.831-9.855,8.407-13.788c3.555-3.916,7.799-6.99,12.692-9.261
			c4.882-2.238,10.256-3.356,16.132-3.356c5.114,0,9.725,0.843,13.815,2.52c4.114,1.678,7.584,4.069,10.409,7.148
			c2.842,3.091,4.955,6.804,6.385,11.127C98.525,47.92,99.174,52.718,99.005,57.973z M55.682,65.396
			c-0.265,4.369,0.141,7.646,1.198,9.855c1.039,2.177,2.638,3.277,4.769,3.277c1.023,0,2.079-0.232,3.169-0.698
			c1.085-0.479,2.097-1.396,3.109-2.763c0-0.107,0.017-0.25,0.027-0.375c0.033-0.123,0.033-0.247,0.033-0.355l2.487-25.411
			c-0.655-0.091-1.339-0.152-2.023-0.152c-3.741,0-6.679,1.413-8.713,4.255C57.688,55.876,56.332,59.99,55.682,65.396z"/>
	</g>
</g>
</svg>
