<?xml version="1.0" encoding="utf-8"?>
<!-- Generator: Adobe Illustrator 16.0.0, SVG Export Plug-In . SVG Version: 6.00 Build 0)  -->
<!DOCTYPE svg PUBLIC "-//W3C//DTD SVG 1.1//EN" "http://www.w3.org/Graphics/SVG/1.1/DTD/svg11.dtd">
<svg version="1.1" id="Layer_1" xmlns="http://www.w3.org/2000/svg" xmlns:xlink="http://www.w3.org/1999/xlink" x="0px" y="0px"
	 width="128px" height="128px" viewBox="0 0 128 128" enable-background="new 0 0 128 128" xml:space="preserve">
<g id="Background">
	<rect fill-opacity="0" width="128" height="128"/>
</g>
<g id="Background_1_">
	<path fill="#737370" d="M18.092,6h91.811C116.552,6,122,11.441,122,18.096v91.806c0,6.656-5.448,12.098-12.098,12.098H18.092
		C11.436,122,6,116.559,6,109.902V18.096C6,11.441,11.436,6,18.092,6"/>
	<g>
		<path fill="#82D1F5" d="M103.071,57.303c-0.139,3.956-0.659,7.873-1.538,11.772c-0.86,3.887-2.142,7.391-3.869,10.467
			c-1.676,3.107-3.828,5.594-6.51,7.508c-2.637,1.916-5.813,2.883-9.493,2.883c-2.455,0-4.664-0.553-6.667-1.619
			c-1.984-1.074-3.573-2.625-4.729-4.629c-1.557,1.896-3.334,3.385-5.355,4.49c-2.053,1.086-4.282,1.619-6.68,1.619
			c-2.863,0-5.406-0.553-7.56-1.688c-2.14-1.143-3.905-2.783-5.267-4.904c-1.331-2.121-2.26-4.666-2.763-7.666
			c-0.521-2.988-0.571-6.305-0.176-9.983c0.521-4.282,1.489-8.149,2.832-11.603c1.381-3.453,3.145-6.403,5.287-8.871
			c2.191-2.455,4.715-4.351,7.647-5.663c2.951-1.331,6.215-2.003,9.895-2.003c3.729,0,6.769,0.483,9.186,1.451
			c2.366,0.966,4.281,2.104,5.764,3.346l-3.089,33.276c-0.069,1.225-0.031,2.154,0.119,2.844c0.156,0.66,0.433,1.176,0.778,1.488
			c0.383,0.346,0.797,0.553,1.293,0.654c0.483,0.068,0.936,0.107,1.4,0.107c1.281,0,2.417-0.555,3.454-1.697
			c1.017-1.135,1.914-2.705,2.692-4.727c0.779-2.021,1.362-4.42,1.765-7.221c0.427-2.812,0.634-5.87,0.634-9.186
			c0.157-5.142-0.238-9.6-1.273-13.36c-1.018-3.768-2.664-6.875-4.873-9.304c-2.21-2.437-4.973-4.251-8.269-5.425
			c-3.334-1.192-7.146-1.777-11.465-1.777c-4.903,0-9.323,0.967-13.223,2.882c-3.937,1.915-7.251,4.577-10.014,7.993
			c-2.781,3.403-4.94,7.459-6.529,12.142c-1.57,4.678-2.486,9.82-2.656,15.432c-0.264,5.645,0.17,10.549,1.312,14.762
			c1.136,4.213,2.881,7.703,5.28,10.498c2.367,2.801,5.368,4.902,8.997,6.283c3.61,1.383,7.805,2.092,12.5,2.092
			c1.481,0,3.058-0.088,4.628-0.258c1.588-0.176,3.107-0.396,4.627-0.729c1.5-0.307,2.97-0.689,4.332-1.105
			c1.381-0.414,2.593-0.879,3.71-1.381l2.316,8.533c-1.262,0.791-2.692,1.48-4.3,2.072c-1.62,0.584-3.297,1.066-5.092,1.48
			c-1.745,0.402-3.541,0.691-5.318,0.885c-1.776,0.189-3.453,0.291-5.11,0.291c-7.026,0-13.072-1.02-18.164-3.041
			c-5.111-2.016-9.323-4.902-12.62-8.631c-3.302-3.762-5.72-8.32-7.239-13.676c-1.519-5.369-2.153-11.395-1.896-18.076
			c0.239-6.648,1.482-12.895,3.799-18.747c2.26-5.858,5.368-10.95,9.342-15.32c3.949-4.351,8.665-7.767,14.102-10.29
			c5.424-2.486,11.396-3.729,17.924-3.729c5.683,0,10.806,0.936,15.351,2.8c4.572,1.864,8.427,4.521,11.566,7.942
			c3.158,3.435,5.506,7.56,7.094,12.363C102.537,46.134,103.259,51.465,103.071,57.303z M54.934,65.553
			c-0.294,4.854,0.157,8.495,1.331,10.95c1.155,2.418,2.932,3.641,5.299,3.641c1.136,0,2.31-0.258,3.522-0.777
			c1.205-0.533,2.329-1.551,3.454-3.07c0-0.119,0.019-0.277,0.031-0.416c0.037-0.137,0.037-0.275,0.037-0.395l2.763-28.234
			c-0.729-0.101-1.488-0.169-2.248-0.169c-4.156,0-7.421,1.57-9.681,4.728C57.163,54.974,55.656,59.545,54.934,65.553z"/>
	</g>
</g>
</svg>
